<svg width="150" height="150" viewBox="0 0 150 150" fill="none" xmlns="http://www.w3.org/2000/svg">
<g clip-path="url(#clip0_199_81)">
<path d="M32.5079 135.274L26.763 128.78L20.5195 135.274V116.292L25.0985 112.379V42.6965C18.9097 37.6163 21.7746 29.4864 27.1795 14.7227C31.6768 29.2749 34.0079 37.2599 28.4283 42.6965V112.379L32.5079 116.292V135.274Z" fill="white"/>
<path d="M38.8614 43.5989C38.8614 41.0054 40.9639 38.903 43.5574 38.903H118.2C120.793 38.903 122.896 41.0054 122.896 43.5989V51.6058C122.896 54.1993 120.793 56.3017 118.2 56.3017H43.5574C40.9639 56.3017 38.8614 54.1993 38.8614 51.6058V43.5989Z" fill="#FEC300"/>
<path d="M38.8614 121.033C38.8614 118.439 40.9639 116.337 43.5574 116.337H118.2C120.793 116.337 122.896 118.439 122.896 121.033V129.039C122.896 131.633 120.793 133.735 118.2 133.735H43.5574C40.9639 133.735 38.8614 131.633 38.8614 129.039V121.033Z" fill="#5EB4E2"/>
<path d="M38.8616 82.277C38.8616 79.6835 40.9641 77.5811 43.5575 77.5811H118.2C120.793 77.5811 122.896 79.6835 122.896 82.277V90.2839C122.896 92.8774 120.793 94.9798 118.2 94.9798H43.5575C40.9641 94.9798 38.8616 92.8774 38.8616 90.2839V82.277Z" fill="#F27137"/>
</g>
<defs>
<clipPath id="clip0_199_81">
<rect width="150" height="150" fill="white"/>
</clipPath>
</defs>
</svg>
